<svg xmlns="http://www.w3.org/2000/svg" xmlns:xlink="http://www.w3.org/1999/xlink" version="1.1" id="Ebene_1" x="0px"
    y="0px" style="enable-background:new 0 0 841.89 595.28;" xml:space="preserve" viewBox="235.5 114.48 335.36 345.16">
    <style type="text/css">
        .st0 {
            fill: none;
            stroke: #9B1B23;
            stroke-width: 7;
            stroke-miterlimit: 10;
        }

        .st1 {
            fill: none;
            stroke: #FFFFFF;
            stroke-width: 15;
            stroke-miterlimit: 10;
        }

        .st2 {
            fill: #9B1B23;
        }

        .st3 {
            fill: #FFFFFF;
        }
    </style>
    <ellipse class="st0" cx="403.18" cy="287.06" rx="164.18" ry="169.08" />
    <ellipse class="st1" cx="403.18" cy="287.06" rx="153.84" ry="158.42" />
    <circle class="st2" cx="403.18" cy="287.06" r="152.77" />
    <path class="st3"
        d="M286.43,342.35l0.09-7.94l101.07,28.8c0,0,10.63,32.68,26.87,0.3l98.63-26.58l-0.08,7.33l-94.92,22.16  c0,0-16.92,38.29-34.82,0.22L286.43,342.35z" />
    <polygon class="st3" points="295.13,328.4 295.2,322.29 353.6,343.71 " />
    <polygon class="st3" points="298.96,320.49 299.28,314.4 356.75,338.21 " />
    <polygon class="st3" points="303.18,312.03 303.89,305.96 359.72,333.39 " />
    <polygon class="st3" points="501.77,309.47 500.75,303.45 446.4,333.71 " />
    <polygon class="st3" points="504.65,320.93 504.07,314.85 447.65,341.03 " />
    <polygon class="st3" points="507.39,330.75 507.45,324.65 448.59,344.76 " />
    <path class="st3"
        d="M311.32,300.52c0,0,63.82,28.16,88.26,55.31c0,0,57-45.11,91.91-53.31c0,0-41.71,1.51-91.63,28.63  C399.85,331.15,361.37,304.16,311.32,300.52z" />
    <path class="st3"
        d="M421.39,299.93c0,0,2.11-7.8,8.45-12.83c0,0-6.42,1.34-10.1,0.17c-0.21-0.07-0.26-0.34-0.1-0.48  c2.22-1.97,13.81-12.52,12.63-17.22c0,0-4.22,6.01-7.63,7.31c0,0,14.94-16.4,14.29-25.17c0,0-5.65,8.63-8.77,10.62  c-0.03,0.02-0.07-0.02-0.05-0.06c1.02-1.45,8.65-12.75,6.22-23.07c0,0-2.84,9.84-7.07,13.36c-0.05,0.04-0.12-0.01-0.11-0.07  c0.36-1.87,3.09-17.03-0.04-24.33c0,0-8.54,40.12-24.45,52.14c0,0-8.86-4.14-14.11-3.32c-0.65,0.1-1.25,0.38-1.75,0.8  c-0.89,0.74-2.22,2.12-2,3.66c0,0,1.54-1.23,3.29-1.52c1.18-0.2,2.37,0.35,3.12,1.29l2.53,3.16c0,0,0.65,1.46-0.32,1.62  c0,0-12.83,6.98-38.66,2.92c0,0,0.97,6.5,26.96,6.33c0,0-2.92,2.6-15.27,2.76c0,0,9.42,4.87,23.71-0.16c0,0,0.16,3.09-9.1,5.52  c0,0,9.91,0.32,19.65-4.87l-2.44,3.9c0,0,9.25-4.41,11.42-8.19c0.19-0.33,0.59-0.45,0.94-0.31  C414.42,294.63,419.29,296.91,421.39,299.93z" />
    <polygon class="st3"
        points="390.48,276.02 398.08,276.8 400.43,271.22 396.4,273.72 394.72,269.71 392.23,272.83 389.27,270.57 " />
</svg>